
<svg version="1.1" id="Layer_1" xmlns="http://www.w3.org/2000/svg" xmlns:xlink="http://www.w3.org/1999/xlink" x="0px" y="0px"
     width="100%" viewBox="0 0 100 100" enable-background="new 0 0 100 100" xml:space="preserve">
  <path fill="#F6F1FF" opacity="1.000000" stroke="none"
        d="
M7.024269,38.016846 
	C10.143476,26.854004 17.771954,19.076918 26.980320,12.937331 
	C30.232578,10.768921 34.790752,10.358324 38.839565,9.624384 
	C49.539688,7.684740 60.224289,6.988587 70.337059,12.215974 
	C71.703766,12.922439 72.732964,14.281833 73.616837,15.684706 
	C72.875008,16.022064 72.434792,16.013609 71.805489,15.731676 
	C70.753319,15.296013 69.890244,15.133826 68.811630,14.689950 
	C65.731468,13.606029 62.866833,12.803796 59.748428,11.709394 
	C57.663960,11.297830 55.833260,11.178434 53.563759,11.031385 
	C51.073090,11.024443 49.021225,11.045154 46.528809,11.037186 
	C42.738739,11.368296 39.389229,11.728085 35.696571,12.191881 
	C25.053698,15.636119 18.067654,22.755167 12.670718,32.139595 
	C11.983325,33.210773 11.543921,34.111523 11.060483,35.339447 
	C10.969226,36.103992 10.922002,36.541370 10.541656,37.021210 
	C9.147112,37.381397 8.085690,37.699123 7.024269,38.016846 
z"/>
  <path fill="#B7A6F0" opacity="1.000000" stroke="none"
        d="
M71.994576,16.005154 
	C72.434792,16.013609 72.875008,16.022064 73.644974,16.042850 
	C74.438148,16.666073 74.901573,17.276962 75.690674,18.262579 
	C76.357750,19.132919 76.699173,19.628532 77.018913,20.491451 
	C76.040047,21.854897 75.263954,23.277719 74.094627,23.774025 
	C68.754715,26.040480 63.214699,27.848940 57.936638,30.241272 
	C55.731129,31.240942 53.997952,33.282681 51.661125,34.904133 
	C49.826576,35.272930 48.380924,35.588219 46.602386,35.928696 
	C45.489616,36.272358 44.709721,36.590824 43.611732,36.965137 
	C42.190392,37.669159 41.087147,38.317341 39.987434,38.559113 
	C40.991676,35.770435 41.992390,33.388168 43.381355,30.997818 
	C52.105362,27.510038 60.498894,24.157804 68.722420,20.430500 
	C70.164413,19.776920 70.893005,17.549370 71.962021,16.037823 
	C71.972969,16.026915 71.994576,16.005154 71.994576,16.005154 
z"/>
  <path fill="#B19FF0" opacity="1.000000" stroke="none"
        d="
M52.050018,34.850620 
	C53.997952,33.282681 55.731129,31.240942 57.936638,30.241272 
	C63.214699,27.848940 68.754715,26.040480 74.094627,23.774025 
	C75.263954,23.277719 76.040047,21.854897 76.999786,20.425880 
	C77.002350,19.993000 76.950554,19.866594 77.214592,19.909121 
	C77.656822,19.957817 77.835014,19.963985 78.013199,19.970154 
	C78.530807,20.560307 79.048424,21.150459 79.923912,22.129591 
	C80.864967,23.302708 81.448151,24.086847 81.819168,25.164270 
	C77.360802,27.167292 73.009460,28.665010 68.920792,30.692453 
	C67.313866,31.489273 66.294365,33.470715 64.646904,34.982059 
	C62.233578,35.379902 60.182278,35.954418 58.127377,35.967617 
	C56.073769,35.980812 54.016544,35.432377 51.990429,35.062576 
	C52.019951,34.995003 52.050018,34.850620 52.050018,34.850620 
z"/>
  <path fill="#DDD2FB" opacity="1.000000" stroke="none"
        d="
M38.991344,94.031586 
	C36.235691,92.709259 33.480038,91.386940 30.358927,89.670418 
	C28.987640,87.577385 27.981810,85.878563 27.339199,84.119553 
	C28.434500,84.100731 29.166584,84.142090 30.075813,84.473160 
	C32.837872,86.122276 35.422779,87.481689 38.351578,89.034843 
	C47.377121,92.518234 56.178471,91.046570 64.979950,90.240906 
	C64.992096,91.061775 64.996201,91.530891 65.000305,92.000000 
	C62.914036,92.998993 60.827766,93.997978 57.909035,94.997787 
	C51.048161,94.676270 45.019753,94.353928 38.991344,94.031586 
z"/>
  <path fill="#ECE6FB" opacity="1.000000" stroke="none"
        d="
M7.009002,38.438412 
	C8.085690,37.699123 9.147112,37.381397 10.585629,37.399765 
	C11.003667,38.495686 11.044610,39.255516 10.892357,40.343952 
	C10.167988,43.451313 9.636814,46.230072 9.063422,49.425018 
	C9.054845,51.232918 9.088486,52.624626 9.213496,54.350731 
	C9.586498,55.794487 9.868131,56.903854 10.104069,58.368042 
	C10.428981,59.817650 10.799587,60.912441 11.132339,62.358929 
	C12.377344,64.828850 13.660202,66.947075 14.982499,69.407867 
	C15.374722,70.825638 15.727507,71.900833 15.823645,73.157028 
	C15.710056,74.560928 15.853115,75.783836 15.996174,77.006752 
	C12.674777,70.356865 8.222695,64.001305 6.390712,56.963703 
	C4.932279,51.361103 6.673151,44.925682 7.009002,38.438412 
z"/>
  <path fill="#AC98ED" opacity="1.000000" stroke="none"
        d="
M65.007355,34.912685 
	C66.294365,33.470715 67.313866,31.489273 68.920792,30.692453 
	C73.009460,28.665010 77.360802,27.167292 82.132698,25.235876 
	C83.079132,25.087439 83.499886,25.160679 83.920631,25.233919 
	C83.920631,25.233919 84.211029,25.348383 84.412109,25.627506 
	C84.755959,26.576527 84.898735,27.246426 84.886093,28.229607 
	C79.820793,31.029308 74.910927,33.515728 69.645859,36.001747 
	C68.582199,36.006577 67.873718,36.011810 66.987427,35.751259 
	C66.208855,35.294548 65.608109,35.103615 65.007355,34.912685 
z"/>
  <path fill="#DCD0FC" opacity="1.000000" stroke="none"
        d="
M65.330307,92.000320 
	C64.996201,91.530891 64.992096,91.061775 65.148766,89.967949 
	C66.556076,88.580132 67.802612,87.817024 69.019539,87.034958 
	C68.989929,87.015991 69.017700,87.080605 69.330322,87.045326 
	C70.131531,86.682373 70.620110,86.354706 71.339096,85.992027 
	C71.569504,85.957016 72.018570,85.832146 72.266937,85.816025 
	C72.806900,85.610924 73.005562,85.350922 73.385162,84.896835 
	C74.443924,84.206200 75.228813,83.638618 76.300659,82.940193 
	C77.433174,81.887779 78.278732,80.966225 79.335831,79.957886 
	C79.813293,79.689537 79.979820,79.441292 80.328926,78.986855 
	C81.428009,77.910995 82.245125,76.974655 83.035492,76.019379 
	C83.008736,76.000450 83.022171,76.064598 83.259674,75.963188 
	C83.677696,75.577400 83.858231,75.293030 84.018349,75.003723 
	C83.997932,74.998779 84.018356,75.035484 84.279007,74.884880 
	C84.737511,74.173164 84.935379,73.612053 85.385239,72.948181 
	C86.075867,72.530098 86.514503,72.214767 86.963242,72.275482 
	C86.645103,74.098953 86.316864,75.546371 85.720001,77.184654 
	C82.629486,80.579529 79.807579,83.783531 76.985672,86.987534 
	C74.214706,88.583710 71.443741,90.179886 68.090240,91.903999 
	C67.331734,92.033073 67.155754,92.034203 66.979782,92.035339 
	C66.539963,92.023781 66.100136,92.012215 65.330307,92.000320 
z"/>
  <path fill="#EBE4FD" opacity="1.000000" stroke="none"
        d="
M95.004562,58.999016 
	C95.002419,59.442997 95.000282,59.886978 94.775635,60.773533 
	C94.281487,61.418446 94.090446,61.679726 93.626541,61.999611 
	C92.566467,61.982533 91.859863,61.965786 91.072571,61.975060 
	C90.991890,62.001076 90.834442,62.063564 90.899048,61.643188 
	C91.259201,58.485863 91.554756,55.748909 91.913055,52.614666 
	C91.936180,51.148331 91.896561,50.079285 91.913322,48.616325 
	C91.603065,46.158199 91.236435,44.093994 90.917603,41.725754 
	C90.667480,40.927673 90.369560,40.433624 90.034714,39.594681 
	C89.713348,38.158710 89.428917,37.067631 89.487198,36.029404 
	C91.215973,37.393684 92.602036,38.705109 93.989395,40.402054 
	C94.321693,42.193172 94.652687,43.598782 94.983688,45.004391 
	C94.988823,45.447548 94.993965,45.890701 94.996796,47.116154 
	C94.997849,51.598637 95.001205,55.298828 95.004562,58.999016 
z"/>
  <path fill="#EAE4F7" opacity="1.000000" stroke="none"
        d="
M16.030836,77.351006 
	C15.853115,75.783836 15.710056,74.560928 16.044260,73.236099 
	C16.797764,73.314095 16.976862,73.563721 17.069336,74.243286 
	C19.063446,76.731812 21.047039,78.860107 23.312449,81.133057 
	C24.721504,82.245049 25.848742,83.212395 26.975979,84.179733 
	C27.981810,85.878563 28.987640,87.577385 30.003372,89.629440 
	C25.364014,85.886856 20.714756,81.791054 16.030836,77.351006 
z"/>
  <path fill="#EAE3FA" opacity="1.000000" stroke="none"
        d="
M91.153252,61.949039 
	C91.859863,61.965786 92.566467,61.982533 93.591278,62.372841 
	C92.270050,67.162971 90.630615,71.579544 88.991180,75.996117 
	C88.991180,75.996117 88.980042,76.484100 88.729225,76.635376 
	C87.648483,76.855698 86.818550,76.924744 85.988617,76.993790 
	C86.316864,75.546371 86.645103,74.098953 87.133270,71.954163 
	C88.579887,68.154205 89.866570,65.051620 91.153252,61.949039 
z"/>
  <path fill="#F6F5FC" opacity="1.000000" stroke="none"
        d="
M39.066338,94.401077 
	C45.019753,94.353928 51.048161,94.676270 57.541412,95.010719 
	C57.825333,95.474152 57.679039,96.301682 57.458454,96.321976 
	C51.266422,96.891846 44.952938,98.679977 39.066338,94.401077 
z"/>
  <path fill="#F6F3FC" opacity="1.000000" stroke="none"
        d="
M93.988098,40.016537 
	C92.602036,38.705109 91.215973,37.393684 89.421333,35.734699 
	C88.702171,34.910053 88.391594,34.432964 88.051109,33.585869 
	C87.027977,31.449347 86.034744,29.682835 85.041512,27.916323 
	C84.898735,27.246426 84.755959,26.576527 84.557343,25.570368 
	C85.607803,25.716982 87.222580,25.892302 87.732758,26.735752 
	C89.992050,30.470915 91.934036,34.398003 93.994125,38.881607 
	C93.994301,39.677231 93.991203,39.846886 93.988098,40.016537 
z"/>
  <path fill="#F9F8FD" opacity="1.000000" stroke="none"
        d="
M89.337845,75.946335 
	C90.630615,71.579544 92.270050,67.162971 93.944740,62.373177 
	C94.090446,61.679726 94.281487,61.418446 94.772911,61.106754 
	C95.559509,66.796120 94.523643,72.023849 89.337845,75.946335 
z"/>
  <path fill="#F2F0FC" opacity="1.000000" stroke="none"
        d="
M85.720001,77.184654 
	C86.818550,76.924744 87.648483,76.855698 88.727142,76.879417 
	C85.223747,80.312340 81.471626,83.652496 77.352585,86.990097 
	C79.807579,83.783531 82.629486,80.579529 85.720001,77.184654 
z"/>
  <path fill="#F9F8FD" opacity="1.000000" stroke="none"
        d="
M95.284744,58.759201 
	C95.001205,55.298828 94.997849,51.598637 94.997864,47.448807 
	C98.221382,50.690868 97.137566,54.593166 95.284744,58.759201 
z"/>
  <path fill="#F9F8FD" opacity="1.000000" stroke="none"
        d="
M93.989395,40.402054 
	C93.991203,39.846886 93.994301,39.677231 93.999695,39.253052 
	C94.508812,40.853455 95.015656,42.708382 95.253090,44.783852 
	C94.652687,43.598782 94.321693,42.193172 93.989395,40.402054 
z"/>
  <path fill="#F6F1FF" opacity="1.000000" stroke="none"
        d="
M83.944595,24.832701 
	C83.499886,25.160679 83.079132,25.087439 82.344864,24.942593 
	C81.448151,24.086847 80.864967,23.302708 80.205719,22.232872 
	C81.409279,22.775276 82.688911,23.603378 83.944595,24.832701 
z"/>
  <path fill="#F6F1FF" opacity="1.000000" stroke="none"
        d="
M77.021469,20.058573 
	C76.699173,19.628532 76.357750,19.132919 76.000732,18.321880 
	C76.153725,18.003256 76.322319,18.000055 76.743263,18.308460 
	C76.980598,19.035574 76.965576,19.451084 76.950554,19.866594 
	C76.950554,19.866594 77.002350,19.993000 77.021469,20.058573 
z"/>
  <path fill="#F4EEFE" opacity="1.000000" stroke="none"
        d="
M77.214592,19.909121 
	C76.965576,19.451084 76.980598,19.035574 76.996201,18.307442 
	C77.321655,18.455975 77.646515,18.917128 77.992279,19.674217 
	C77.835014,19.963985 77.656822,19.957817 77.214592,19.909121 
z"/>
  <path fill="#EDEAF9" opacity="1.000000" stroke="none"
        d="
M67.073654,92.200134 
	C67.155754,92.034203 67.331734,92.033073 67.771072,92.053268 
	C67.745468,92.171379 67.456497,92.268158 67.073654,92.200134 
z"/>
  <path fill="#C0AFF7" opacity="1.000000" stroke="none"
        d="
M12.918706,31.969173 
	C18.067654,22.755167 25.053698,15.636119 35.954269,12.455460 
	C40.026524,12.098641 43.497944,11.582253 46.969360,11.065865 
	C49.021225,11.045154 51.073090,11.024443 53.625145,11.374481 
	C56.084290,11.830675 58.043243,11.916119 60.002197,12.001563 
	C62.866833,12.803796 65.731468,13.606029 68.589752,14.804672 
	C68.303062,15.402724 68.110550,15.668070 67.957016,16.370354 
	C62.568481,19.178493 57.280952,21.741018 51.853115,23.960371 
	C50.461487,24.529385 48.626862,24.014965 46.997108,23.665302 
	C47.000835,22.888336 47.003216,22.444359 47.308617,21.847113 
	C49.030518,19.779903 50.449402,17.865963 52.131180,15.597405 
	C43.509464,13.286225 38.133789,19.355093 31.632732,21.624290 
	C31.210678,21.771608 31.386885,23.227989 30.970482,23.872303 
	C29.720154,25.806984 28.667587,28.724909 26.899384,29.301624 
	C22.425110,30.760939 17.602053,31.150877 12.918706,31.969173 
z"/>
  <path fill="#BAA7F6" opacity="1.000000" stroke="none"
        d="
M12.670718,32.139595 
	C17.602053,31.150877 22.425110,30.760939 26.899384,29.301624 
	C28.667587,28.724909 29.720154,25.806984 30.970482,23.872303 
	C31.386885,23.227989 31.210678,21.771608 31.632732,21.624290 
	C38.133789,19.355093 43.509464,13.286225 52.131180,15.597405 
	C50.449402,17.865963 49.030518,19.779903 46.925224,21.852749 
	C43.167316,23.170805 40.024208,24.176893 37.059410,25.564085 
	C35.865608,26.122648 34.142269,27.611647 34.235638,28.514175 
	C34.729095,33.283966 31.245979,33.801994 28.146940,34.829327 
	C22.991222,36.538456 17.857258,39.732777 12.565266,35.093353 
	C12.276551,34.840244 11.600348,35.029133 11.104515,35.012276 
	C11.543921,34.111523 11.983325,33.210773 12.670718,32.139595 
z"/>
  <path fill="#B3A0F3" opacity="1.000000" stroke="none"
        d="
M11.060482,35.339447 
	C11.600348,35.029133 12.276551,34.840244 12.565266,35.093353 
	C17.857258,39.732777 22.991222,36.538456 28.146940,34.829327 
	C31.245979,33.801994 34.729095,33.283966 34.235638,28.514175 
	C34.142269,27.611647 35.865608,26.122648 37.059410,25.564085 
	C40.024208,24.176893 43.167316,23.170805 46.622208,22.006020 
	C47.003216,22.444359 47.000835,22.888336 46.693710,23.814751 
	C45.253616,26.201502 44.118267,28.105814 42.588104,30.008484 
	C39.027939,29.894629 37.252804,31.266485 36.938969,34.562817 
	C36.840881,35.593098 36.326469,37.123283 35.570221,37.463524 
	C30.769072,39.623611 25.862106,41.554325 20.945059,43.443626 
	C20.326092,43.681458 19.398464,43.352760 18.691692,43.082767 
	C16.138327,42.107376 13.618217,41.044926 11.085552,40.015347 
	C11.044610,39.255516 11.003667,38.495686 10.918751,37.357300 
	C10.922002,36.541370 10.969226,36.103992 11.060482,35.339447 
z"/>
  <path fill="#BEB2ED" opacity="1.000000" stroke="none"
        d="
M46.528809,11.037186 
	C43.497944,11.582253 40.026524,12.098641 36.297409,12.351452 
	C39.389229,11.728085 42.738739,11.368296 46.528809,11.037186 
z"/>
  <path fill="#BEB2ED" opacity="1.000000" stroke="none"
        d="
M59.748428,11.709394 
	C58.043243,11.916119 56.084290,11.830675 54.063950,11.402136 
	C55.833260,11.178434 57.663960,11.297830 59.748428,11.709394 
z"/>
  <path fill="#B7A6F0" opacity="1.000000" stroke="none"
        d="
M68.005844,15.997122 
	C68.110550,15.668070 68.303062,15.402724 68.805275,15.086363 
	C69.890244,15.133826 70.753319,15.296013 71.805489,15.731676 
	C71.994576,16.005154 71.972969,16.026915 71.568527,16.020817 
	C70.111336,16.008854 69.058594,16.002989 68.005844,15.997122 
z"/>
  <path fill="#AD99F0" opacity="1.000000" stroke="none"
        d="
M10.892357,40.343952 
	C13.618217,41.044926 16.138327,42.107376 18.691692,43.082767 
	C19.398464,43.352760 20.326092,43.681458 20.945059,43.443626 
	C25.862106,41.554325 30.769072,39.623611 35.570221,37.463524 
	C36.326469,37.123283 36.840881,35.593098 36.938969,34.562817 
	C37.252804,31.266485 39.027939,29.894629 42.591461,30.257360 
	C42.989628,30.507879 42.993103,31.005899 42.993103,31.005899 
	C41.992390,33.388168 40.991676,35.770435 39.951069,38.881401 
	C39.853569,40.038059 39.795959,40.466015 39.396454,40.914268 
	C38.012859,41.961895 36.971161,42.989223 35.570839,44.010914 
	C34.141567,44.337875 33.070923,44.670471 31.634651,45.040428 
	C27.720348,46.207493 22.475924,49.373531 20.935928,48.091110 
	C16.004955,43.984867 12.853630,46.891510 9.105640,49.008827 
	C9.636814,46.230072 10.167988,43.451313 10.892357,40.343952 
z"/>
  <path fill="#BBA9F5" opacity="1.000000" stroke="none"
        d="
M43.381355,30.997818 
	C42.993103,31.005899 42.989628,30.507879 42.986275,30.259003 
	C44.118267,28.105814 45.253616,26.201502 46.692360,24.147739 
	C48.626862,24.014965 50.461487,24.529385 51.853115,23.960371 
	C57.280952,21.741018 62.568481,19.178493 67.957016,16.370354 
	C69.058594,16.002989 70.111336,16.008854 71.557579,16.031727 
	C70.893005,17.549370 70.164413,19.776920 68.722420,20.430500 
	C60.498894,24.157804 52.105362,27.510038 43.381355,30.997818 
z"/>
  <path fill="#EFEBFB" opacity="1.000000" stroke="none"
        d="
M43.929825,36.909294 
	C44.709721,36.590824 45.489616,36.272358 46.795364,36.215321 
	C52.553066,40.439522 57.733463,44.474026 63.064777,48.298119 
	C64.010880,48.976753 65.584930,48.779957 66.946838,49.240570 
	C67.070236,49.664230 67.115814,49.834724 67.100769,50.381439 
	C66.981873,51.516850 66.923607,52.276039 66.484886,53.024529 
	C63.980824,51.849777 61.839134,50.717182 59.740208,49.510220 
	C58.418022,48.749912 57.159851,47.878273 55.577690,46.905674 
	C54.232536,46.495594 53.182659,46.236412 51.960999,45.711807 
	C51.198528,45.245266 50.607834,45.044144 50.005623,44.483383 
	C47.972675,41.718933 45.951252,39.314110 43.929825,36.909294 
z"/>
  <path fill="#F7F5FC" opacity="1.000000" stroke="none"
        d="
M66.869019,48.987404 
	C65.584930,48.779957 64.010880,48.976753 63.064777,48.298119 
	C57.733463,44.474026 52.553066,40.439522 47.128242,36.190132 
	C48.380924,35.588219 49.826576,35.272930 51.661125,34.904133 
	C52.050018,34.850620 52.019951,34.995003 52.048294,35.398502 
	C56.999565,39.198380 61.922489,42.594753 66.903061,46.363289 
	C66.930138,47.486099 66.899574,48.236752 66.869019,48.987404 
z"/>
  <path fill="#E5DFF8" opacity="1.000000" stroke="none"
        d="
M43.611732,36.965134 
	C45.951252,39.314110 47.972675,41.718933 49.660225,44.540001 
	C48.249268,45.319176 47.172188,45.682098 45.815189,45.863800 
	C43.602962,44.086376 41.670658,42.490173 39.738354,40.893970 
	C39.795959,40.466015 39.853569,40.038059 39.947540,39.287811 
	C41.087147,38.317341 42.190392,37.669159 43.611732,36.965134 
z"/>
  <path fill="#FCF9FE" opacity="1.000000" stroke="none"
        d="
M66.845413,45.991127 
	C61.922489,42.594753 56.999565,39.198380 52.018772,35.466072 
	C54.016544,35.432377 56.073769,35.980812 58.127377,35.967617 
	C60.182278,35.954418 62.233578,35.379902 64.646904,34.982056 
	C65.608109,35.103615 66.208855,35.294548 66.930801,36.192093 
	C67.084030,39.269722 67.116081,41.640739 67.089905,44.340622 
	C66.969597,45.110039 66.907501,45.550583 66.845413,45.991127 
z"/>
  <path fill="#785AD8" opacity="1.000000" stroke="none"
        d="
M76.013695,83.071045 
	C75.228813,83.638618 74.443924,84.206200 73.159042,84.966995 
	C72.366386,85.308762 72.152901,85.532730 72.018570,85.832146 
	C72.018570,85.832146 71.569504,85.957016 71.021614,86.001160 
	C69.988380,86.390404 69.503044,86.735504 69.017700,87.080605 
	C69.017700,87.080605 68.989929,87.015991 68.629181,86.973770 
	C65.793320,86.132164 63.303600,85.375053 60.845810,84.525566 
	C53.040863,81.827950 45.284416,77.436958 37.184238,84.253197 
	C37.432835,85.638260 37.720261,87.239677 38.007690,88.841095 
	C35.422779,87.481689 32.837872,86.122276 30.229137,84.151947 
	C33.943607,78.800522 38.506992,76.245110 44.823921,77.375587 
	C47.419250,77.840065 50.212143,77.888710 52.810020,77.471603 
	C55.855042,76.982704 58.850647,75.943848 61.729473,74.796684 
	C62.703358,74.408600 63.256046,72.963539 64.334290,72.000809 
	C65.111473,71.997887 65.555580,71.995651 66.332794,71.995010 
	C67.110016,71.997017 67.554131,71.997444 68.390503,72.045227 
	C70.681671,72.172455 72.582558,72.220726 74.479057,72.339302 
	C77.656113,72.537949 80.830360,72.781433 84.004288,73.344162 
	C84.007980,74.133347 84.013168,74.584419 84.018356,75.035484 
	C84.018356,75.035484 83.997932,74.998779 83.785828,75.111092 
	C83.389877,75.503799 83.206024,75.784203 83.022171,76.064598 
	C83.022171,76.064598 83.008736,76.000450 82.652222,76.013062 
	C81.546135,77.059235 80.796547,78.092804 80.046959,79.126373 
	C79.979820,79.441292 79.813293,79.689537 78.950333,79.949669 
	C77.573418,81.042511 76.793556,82.056778 76.013695,83.071045 
z"/>
  <path fill="#7556D7" opacity="1.000000" stroke="none"
        d="
M38.351578,89.034843 
	C37.720261,87.239677 37.432835,85.638260 37.184238,84.253197 
	C45.284416,77.436958 53.040863,81.827950 60.845810,84.525566 
	C63.303600,85.375053 65.793320,86.132164 68.658783,86.992737 
	C67.802612,87.817024 66.556076,88.580132 65.140732,89.616196 
	C56.178471,91.046570 47.377121,92.518234 38.351578,89.034843 
z"/>
  <path fill="#7C5FD9" opacity="1.000000" stroke="none"
        d="
M64.001221,72.001511 
	C63.256046,72.963539 62.703358,74.408600 61.729473,74.796684 
	C58.850647,75.943848 55.855042,76.982704 52.810020,77.471603 
	C50.212143,77.888710 47.419250,77.840065 44.823921,77.375587 
	C38.506992,76.245110 33.943607,78.800522 30.051991,83.862244 
	C29.166584,84.142090 28.434500,84.100731 27.339199,84.119553 
	C25.848742,83.212395 24.721504,82.245049 23.284386,80.784943 
	C22.589170,79.210663 22.203835,78.129158 22.284069,77.032501 
	C27.153650,76.985870 31.552740,77.511726 35.346764,74.062759 
	C36.348198,73.152405 38.989414,74.177895 40.862259,74.063141 
	C43.665886,73.891380 46.776829,74.182381 49.184589,73.054482 
	C54.130226,70.737717 58.907532,70.215599 64.001221,72.001511 
z"/>
  <path fill="#987FE6" opacity="1.000000" stroke="none"
        d="
M11.170193,62.007229 
	C10.799587,60.912441 10.428981,59.817650 10.517621,58.363945 
	C14.651265,57.002701 18.325663,56.000370 22.312870,55.154514 
	C25.003981,58.698753 27.775024,59.963737 31.615530,57.354858 
	C32.436459,56.797192 33.842007,57.100143 34.991665,57.251541 
	C35.005100,57.496464 35.029831,57.986423 35.016853,58.418793 
	C35.345856,61.248669 35.687836,63.646168 36.022171,66.292877 
	C36.014530,66.542076 36.001026,67.040520 35.667274,67.032944 
	C34.888393,67.022446 34.443264,67.019524 33.800018,66.751602 
	C31.734377,65.324951 29.866844,64.163315 27.838680,62.680977 
	C25.710455,60.640099 15.284680,60.417126 11.170193,62.007229 
z"/>
  <path fill="#896FDD" opacity="1.000000" stroke="none"
        d="
M27.999308,63.001671 
	C29.866844,64.163315 31.734377,65.324951 33.628242,67.070145 
	C32.651745,68.116295 31.617098,68.521019 30.651752,69.051781 
	C27.052515,71.030731 23.476019,73.051041 19.608643,74.922714 
	C18.570471,74.487411 17.814644,74.185234 17.058817,73.883057 
	C16.976862,73.563721 16.797764,73.314095 16.300907,73.055115 
	C15.727507,71.900833 15.374722,70.825638 15.232534,69.120605 
	C19.628523,66.661064 23.813915,64.831367 27.999308,63.001671 
z"/>
  <path fill="#A590ED" opacity="1.000000" stroke="none"
        d="
M9.063422,49.425018 
	C12.853630,46.891510 16.004955,43.984867 20.935928,48.091110 
	C22.475924,49.373531 27.720348,46.207493 31.581776,45.385727 
	C30.744205,46.550816 29.347878,47.216885 28.499763,48.308773 
	C27.142086,50.056686 26.147957,52.086987 24.625534,53.998741 
	C23.501806,53.997471 22.752699,53.995384 21.957169,53.625313 
	C20.202822,52.702553 18.426611,51.545952 16.802546,51.730232 
	C14.189582,52.026722 11.677075,53.208553 9.122126,54.016335 
	C9.088486,52.624626 9.054845,51.232918 9.063422,49.425018 
z"/>
  <path fill="#9178E3" opacity="1.000000" stroke="none"
        d="
M27.838678,62.680977 
	C23.813915,64.831367 19.628523,66.661064 15.193096,68.778030 
	C13.660202,66.947075 12.377344,64.828850 11.132339,62.358929 
	C15.284680,60.417126 25.710455,60.640099 27.838678,62.680977 
z"/>
  <path fill="#9D87EB" opacity="1.000000" stroke="none"
        d="
M9.213497,54.350731 
	C11.677075,53.208553 14.189582,52.026722 16.802546,51.730232 
	C18.426611,51.545952 20.202822,52.702553 21.955853,53.876541 
	C22.000660,54.663177 22.000359,54.830605 22.000059,54.998035 
	C18.325663,56.000370 14.651265,57.002701 10.563315,58.009125 
	C9.868131,56.903854 9.586498,55.794487 9.213497,54.350731 
z"/>
  <path fill="#A591E9" opacity="1.000000" stroke="none"
        d="
M84.886093,28.229607 
	C86.034744,29.682835 87.027977,31.449347 87.729797,33.744049 
	C81.958229,36.847195 76.478065,39.422146 70.998482,41.605835 
	C70.666389,39.477100 70.333725,37.739624 70.001053,36.002148 
	C74.910927,33.515728 79.820793,31.029308 84.886093,28.229607 
z"/>
  <path fill="#A592E2" opacity="1.000000" stroke="none"
        d="
M69.645866,36.001747 
	C70.333725,37.739624 70.666389,39.477100 70.711174,41.743324 
	C69.331566,42.851967 68.239845,43.431858 67.148125,44.011749 
	C67.116081,41.640739 67.084030,39.269722 67.108612,36.457874 
	C67.873718,36.011810 68.582199,36.006577 69.645866,36.001747 
z"/>
  <path fill="#7E62D8" opacity="1.000000" stroke="none"
        d="
M84.005791,73.006042 
	C80.830360,72.781433 77.656113,72.537949 74.479057,72.339302 
	C72.582558,72.220726 70.681671,72.172455 68.447327,71.694031 
	C71.508003,69.485542 74.781410,67.369362 78.332626,65.946625 
	C82.370369,64.328957 86.656364,63.330940 90.834442,62.063564 
	C90.834442,62.063564 90.991890,62.001076 91.072571,61.975060 
	C89.866570,65.051620 88.579887,68.154205 87.123177,71.578110 
	C86.514503,72.214767 86.075867,72.530098 85.103363,72.932610 
	C84.381592,73.015205 84.193687,73.010628 84.005791,73.006042 
z"/>
  <path fill="#775FC7" opacity="1.000000" stroke="none"
        d="
M80.328926,78.986855 
	C80.796547,78.092804 81.546135,77.059235 82.678978,76.031982 
	C82.245125,76.974655 81.428009,77.910995 80.328926,78.986855 
z"/>
  <path fill="#775FC7" opacity="1.000000" stroke="none"
        d="
M76.300659,82.940193 
	C76.793556,82.056778 77.573418,81.042511 78.738785,80.036453 
	C78.278732,80.966225 77.433174,81.887779 76.300659,82.940193 
z"/>
  <path fill="#775FC7" opacity="1.000000" stroke="none"
        d="
M84.004288,73.344162 
	C84.193687,73.010628 84.381592,73.015205 84.851372,73.035370 
	C84.935379,73.612053 84.737511,74.173164 84.279007,74.884880 
	C84.013168,74.584419 84.007980,74.133347 84.004288,73.344162 
z"/>
  <path fill="#775FC7" opacity="1.000000" stroke="none"
        d="
M69.330322,87.045326 
	C69.503044,86.735504 69.988380,86.390404 70.791206,86.036171 
	C70.620110,86.354706 70.131531,86.682373 69.330322,87.045326 
z"/>
  <path fill="#775FC7" opacity="1.000000" stroke="none"
        d="
M83.259674,75.963188 
	C83.206024,75.784203 83.389877,75.503799 83.806244,75.116028 
	C83.858231,75.293030 83.677696,75.577400 83.259674,75.963188 
z"/>
  <path fill="#775FC7" opacity="1.000000" stroke="none"
        d="
M72.266937,85.816025 
	C72.152901,85.532730 72.366386,85.308762 72.885162,85.090057 
	C73.005562,85.350922 72.806900,85.610924 72.266937,85.816025 
z"/>
  <path fill="#8368DB" opacity="1.000000" stroke="none"
        d="
M90.899048,61.643188 
	C86.656364,63.330940 82.370369,64.328957 78.332626,65.946625 
	C74.781410,67.369362 71.508003,69.485542 68.055077,71.646675 
	C67.554131,71.997444 67.110016,71.997017 66.330597,71.580444 
	C66.268326,68.426292 64.698318,67.897049 62.386002,67.975304 
	C59.563328,68.070839 56.734104,67.972832 54.097290,67.697624 
	C55.536366,66.650955 56.785866,65.865181 58.372612,65.024307 
	C60.110474,63.962170 61.511097,62.955143 63.304962,61.962749 
	C65.465378,61.647797 67.232544,61.318211 69.218033,61.257534 
	C70.966843,61.179546 72.577179,61.030621 74.013916,60.451229 
	C79.987862,58.042110 85.909485,55.503227 91.850311,53.011959 
	C91.554756,55.748909 91.259201,58.485863 90.899048,61.643188 
z"/>
  <path fill="#9E88E6" opacity="1.000000" stroke="none"
        d="
M67.089905,44.340622 
	C68.239845,43.431858 69.331566,42.851967 70.710594,42.134586 
	C76.478065,39.422146 81.958229,36.847195 87.759697,34.114059 
	C88.391594,34.432964 88.702171,34.910053 89.078621,35.681847 
	C89.428917,37.067631 89.713348,38.158710 90.001938,39.623825 
	C90.006088,39.997856 89.943062,40.057293 89.547806,40.037487 
	C87.887321,40.240383 86.485970,40.186703 85.379463,40.731689 
	C79.267059,43.742229 73.226555,46.898735 67.161400,50.005211 
	C67.115814,49.834724 67.070236,49.664230 66.946838,49.240570 
	C66.899574,48.236752 66.930138,47.486099 66.903053,46.363289 
	C66.907501,45.550583 66.969597,45.110039 67.089905,44.340622 
z"/>
  <path fill="#886DDD" opacity="1.000000" stroke="none"
        d="
M91.913048,52.614666 
	C85.909485,55.503227 79.987862,58.042110 74.013916,60.451229 
	C72.577179,61.030621 70.966843,61.179546 69.416656,60.978165 
	C74.264748,56.953205 79.132530,53.476524 84.399597,49.992432 
	C87.151581,49.660091 89.504265,49.335167 91.856949,49.010242 
	C91.896561,50.079285 91.936180,51.148331 91.913048,52.614666 
z"/>
  <path fill="#8D74DC" opacity="1.000000" stroke="none"
        d="
M91.913322,48.616325 
	C89.504265,49.335167 87.151581,49.660091 84.398842,49.742088 
	C83.998375,49.332275 83.997963,49.165382 84.269989,48.805161 
	C86.361870,46.410038 88.181335,44.208244 90.218124,42.009300 
	C90.435463,42.012154 90.869812,42.029785 90.869812,42.029785 
	C91.236435,44.093994 91.603065,46.158199 91.913322,48.616325 
z"/>
  <path fill="#9E88E6" opacity="1.000000" stroke="none"
        d="
M90.917603,41.725754 
	C90.869812,42.029785 90.435463,42.012154 90.215897,41.683876 
	C89.978577,40.922829 89.960823,40.490063 89.943069,40.057293 
	C89.943062,40.057293 90.006088,39.997856 90.038864,39.968712 
	C90.369560,40.433624 90.667480,40.927673 90.917603,41.725754 
z"/>
  <path fill="#DDD2FB" opacity="1.000000" stroke="none"
        d="
M17.069336,74.243286 
	C17.814644,74.185234 18.570471,74.487411 19.729263,75.181946 
	C20.694317,76.065414 21.256409,76.556526 21.818499,77.047646 
	C22.203835,78.129158 22.589170,79.210663 23.002567,80.640289 
	C21.047039,78.860107 19.063446,76.731812 17.069336,74.243286 
z"/>
  <path fill="#D5CBF6" opacity="1.000000" stroke="none"
        d="
M39.396454,40.914268 
	C41.670658,42.490173 43.602962,44.086376 45.678810,46.144646 
	C45.326893,47.726936 44.831436,48.847168 44.211071,50.209061 
	C44.031681,50.622993 43.977200,50.795269 43.583622,50.937599 
	C41.155819,49.602028 39.067112,48.296406 36.865181,46.692619 
	C36.477798,45.601826 36.203632,44.809189 35.929466,44.016552 
	C36.971161,42.989223 38.012859,41.961895 39.396454,40.914268 
z"/>
  <path fill="#A590EB" opacity="1.000000" stroke="none"
        d="
M35.570839,44.010914 
	C36.203632,44.809189 36.477798,45.601826 36.507957,46.759125 
	C35.829788,48.419262 35.395626,49.714741 34.572037,51.007904 
	C31.121796,52.003033 28.060974,53.000481 25.000153,53.997925 
	C26.147957,52.086987 27.142086,50.056686 28.499763,48.308773 
	C29.347878,47.216885 30.744205,46.550816 31.947403,45.348366 
	C33.070923,44.670471 34.141567,44.337875 35.570839,44.010914 
z"/>
  <path fill="#9983E7" opacity="1.000000" stroke="none"
        d="
M89.547813,40.037487 
	C89.960823,40.490063 89.978577,40.922829 89.998566,41.681023 
	C88.181335,44.208244 86.361870,46.410038 83.901382,48.809986 
	C79.439209,49.545307 75.618065,50.082478 71.454720,50.667751 
	C71.363281,53.233177 69.984749,54.345551 67.111740,52.971104 
	C67.029282,52.991177 66.865356,53.035225 66.865356,53.035225 
	C66.923607,52.276039 66.981873,51.516850 67.100769,50.381439 
	C73.226555,46.898735 79.267059,43.742229 85.379463,40.731689 
	C86.485970,40.186703 87.887321,40.240383 89.547813,40.037487 
z"/>
  <path fill="#E4DCFA" opacity="1.000000" stroke="none"
        d="
M55.872963,47.056572 
	C57.159851,47.878273 58.418022,48.749912 59.740208,49.510220 
	C61.839134,50.717182 63.980824,51.849777 66.484894,53.024529 
	C66.865356,53.035225 67.029282,52.991177 67.053925,53.357689 
	C65.720421,56.154186 64.362274,58.584175 62.863533,60.711063 
	C60.797668,58.939125 58.872402,57.470287 56.957375,55.584038 
	C56.682533,53.107376 56.397457,51.048126 56.080666,48.665691 
	C55.990288,47.913860 55.931625,47.485218 55.872963,47.056572 
z"/>
  <path fill="#9F89E9" opacity="1.000000" stroke="none"
        d="
M55.577690,46.905674 
	C55.931625,47.485218 55.990288,47.913860 55.763939,48.798790 
	C53.318195,51.827473 51.157452,54.399872 48.699783,56.961487 
	C47.926022,56.649998 47.449188,56.349300 46.981789,55.708775 
	C46.993179,54.916973 46.995140,54.465004 47.000526,53.680107 
	C47.007359,52.903282 47.010761,52.459377 47.348793,51.959091 
	C49.077652,49.930569 50.471882,47.958420 51.932167,45.965935 
	C51.998219,45.945591 52.132778,45.977226 52.132778,45.977226 
	C53.182659,46.236412 54.232536,46.495594 55.577690,46.905674 
z"/>
  <path fill="#856ECD" opacity="1.000000" stroke="none"
        d="
M44.335979,49.967400 
	C44.831436,48.847168 45.326893,47.726936 45.958733,46.325863 
	C47.172188,45.682098 48.249268,45.319176 49.671741,44.899635 
	C50.607834,45.044144 51.198528,45.245266 51.960999,45.711807 
	C52.132778,45.977226 51.998219,45.945591 51.588257,45.974800 
	C49.458649,47.341587 47.738998,48.679173 45.737602,50.011322 
	C45.082565,49.993053 44.709270,49.980225 44.335979,49.967400 
z"/>
  <path fill="#8165DE" opacity="1.000000" stroke="none"
        d="
M22.284069,77.032501 
	C21.256409,76.556526 20.694317,76.065414 20.011608,75.315063 
	C23.476019,73.051041 27.052515,71.030731 30.651752,69.051781 
	C31.617098,68.521019 32.651745,68.116295 33.826351,67.335152 
	C34.443264,67.019524 34.888393,67.022446 35.736965,67.387680 
	C38.759556,70.359116 40.898201,68.762901 43.364525,67.119331 
	C45.483311,67.488014 47.251331,67.702019 49.419205,67.945366 
	C50.886311,67.938156 51.953568,67.901604 53.240974,67.903656 
	C53.461124,67.942268 53.907711,67.958527 53.907711,67.958527 
	C56.734104,67.972832 59.563328,68.070839 62.386002,67.975304 
	C64.698318,67.897049 66.268326,68.426292 65.997498,71.578865 
	C65.555580,71.995651 65.111473,71.997887 64.334290,72.000809 
	C58.907532,70.215599 54.130226,70.737717 49.184589,73.054482 
	C46.776829,74.182381 43.665886,73.891380 40.862259,74.063141 
	C38.989414,74.177895 36.348198,73.152405 35.346764,74.062759 
	C31.552740,77.511726 27.153650,76.985870 22.284069,77.032501 
z"/>
  <path fill="#B7AAE4" opacity="1.000000" stroke="none"
        d="
M53.020824,67.865051 
	C51.953568,67.901604 50.886311,67.938156 49.368397,67.600075 
	C44.288437,64.145767 39.659134,61.066093 35.029831,57.986423 
	C35.029831,57.986423 35.005100,57.496464 35.002502,56.849407 
	C35.014633,55.130444 35.029358,54.058533 35.413673,52.996605 
	C40.842834,56.356041 46.013115,59.555912 50.883751,63.160656 
	C52.093853,64.056244 52.334545,66.261688 53.020824,67.865051 
z"/>
  <path fill="#AD9CE6" opacity="1.000000" stroke="none"
        d="
M35.016853,58.418793 
	C39.659134,61.066093 44.288437,64.145767 48.968544,67.570732 
	C47.251331,67.702019 45.483311,67.488014 43.193878,66.806778 
	C40.458248,66.240913 38.244034,66.142288 36.029816,66.043671 
	C35.687836,63.646168 35.345856,61.248669 35.016853,58.418793 
z"/>
  <path fill="#9E88E9" opacity="1.000000" stroke="none"
        d="
M35.044086,52.986626 
	C35.029358,54.058533 35.014633,55.130444 34.989067,56.604485 
	C33.842007,57.100143 32.436459,56.797192 31.615530,57.354858 
	C27.775024,59.963737 25.003981,58.698753 22.312870,55.154514 
	C22.000359,54.830605 22.000660,54.663177 22.002277,54.244522 
	C22.752699,53.995384 23.501806,53.997471 24.625532,53.998741 
	C28.060974,53.000481 31.121796,52.003033 34.587742,51.337196 
	C35.009941,52.108078 35.027012,52.547352 35.044086,52.986626 
z"/>
  <path fill="#896FDD" opacity="1.000000" stroke="none"
        d="
M36.022171,66.292877 
	C38.244034,66.142288 40.458248,66.240913 42.843117,66.652092 
	C40.898201,68.762901 38.759556,70.359116 36.070717,67.395264 
	C36.001026,67.040520 36.014530,66.542076 36.022171,66.292877 
z"/>
  <path fill="#C1B4EB" opacity="1.000000" stroke="none"
        d="
M35.413673,52.996605 
	C35.027012,52.547352 35.009941,52.108078 34.977165,51.339512 
	C35.395626,49.714741 35.829788,48.419262 36.621178,47.057281 
	C39.067112,48.296406 41.155819,49.602028 43.629639,51.308216 
	C44.046741,52.453487 44.078735,53.198189 44.203171,54.250439 
	C45.187859,55.054859 46.080105,55.551731 46.972351,56.048603 
	C47.449188,56.349300 47.926022,56.649998 48.900883,57.229095 
	C50.261547,57.667114 51.124191,57.826736 52.027084,58.340279 
	C54.056679,60.822601 56.046024,62.951008 58.035366,65.079414 
	C56.785866,65.865181 55.536366,66.650955 54.097290,67.697624 
	C53.907711,67.958527 53.461124,67.942268 53.240974,67.903656 
	C52.334545,66.261688 52.093853,64.056244 50.883751,63.160656 
	C46.013115,59.555912 40.842834,56.356041 35.413673,52.996605 
z"/>
  <path fill="#947EE4" opacity="1.000000" stroke="none"
        d="
M63.004128,61.014164 
	C64.362274,58.584175 65.720421,56.154186 67.136383,53.337616 
	C69.984749,54.345551 71.363281,53.233177 71.454720,50.667751 
	C75.618065,50.082478 79.439209,49.545307 83.628952,49.003311 
	C83.997963,49.165382 83.998375,49.332275 83.999542,49.749508 
	C79.132530,53.476524 74.264748,56.953205 69.198349,60.709255 
	C67.232544,61.318211 65.465378,61.647797 63.336510,61.730228 
	C62.974812,61.483074 63.004128,61.014164 63.004128,61.014164 
z"/>
  <path fill="#CCC0EE" opacity="1.000000" stroke="none"
        d="
M62.863533,60.711063 
	C63.004128,61.014164 62.974812,61.483074 62.943264,61.715595 
	C61.511097,62.955143 60.110474,63.962170 58.372612,65.024307 
	C56.046024,62.951008 54.056679,60.822601 52.241150,58.077518 
	C53.925686,56.974373 55.436409,56.487911 56.947132,56.001450 
	C58.872402,57.470287 60.797668,58.939125 62.863533,60.711063 
z"/>
  <path fill="#8C76D8" opacity="1.000000" stroke="none"
        d="
M44.110729,53.942894 
	C44.078735,53.198189 44.046741,52.453487 43.968735,51.338165 
	C43.977200,50.795269 44.031681,50.622993 44.211071,50.209061 
	C44.709270,49.980225 45.082565,49.993053 45.843121,50.269588 
	C46.491642,51.027355 46.752903,51.521416 47.014164,52.015472 
	C47.010761,52.459377 47.007359,52.903282 46.638618,53.675522 
	C45.552429,53.983536 44.831581,53.963215 44.110729,53.942894 
z"/>
  <path fill="#B4A2F1" opacity="1.000000" stroke="none"
        d="
M56.957375,55.584038 
	C55.436409,56.487911 53.925686,56.974373 52.200897,57.723598 
	C51.124191,57.826736 50.261547,57.667114 49.197807,57.239883 
	C51.157452,54.399872 53.318195,51.827473 55.795658,49.121971 
	C56.397457,51.048126 56.682533,53.107376 56.957375,55.584038 
z"/>
  <path fill="#9176E7" opacity="1.000000" stroke="none"
        d="
M47.348793,51.959091 
	C46.752903,51.521416 46.491642,51.027355 46.124866,50.275024 
	C47.738998,48.679173 49.458649,47.341587 51.522205,45.995140 
	C50.471882,47.958420 49.077652,49.930569 47.348793,51.959091 
z"/>
  <path fill="#9D8CD8" opacity="1.000000" stroke="none"
        d="
M44.203171,54.250439
	C44.831581,53.963215 45.552429,53.983536 46.635193,54.008442
	C46.995140,54.465004 46.993179,54.916973 46.981789,55.708775
	C46.080105,55.551731 45.187859,55.054859 44.203171,54.250439
z"/>
</svg>